<svg xmlns="http://www.w3.org/2000/svg" width="300" height="300" viewBox="0 0 300 300" fill="none">
  <style>
    .float { animation: float 6s ease-in-out infinite; }
    @keyframes float { 0%, 100% { transform: translateY(0); } 50% { transform: translateY(-10px); } }
    .spin { animation: spin 20s linear infinite; }
    @keyframes spin { from { transform: rotate(0deg); } to { transform: rotate(360deg); } }
    .pulse { animation: pulse 4s ease-in-out infinite; }
    @keyframes pulse { 0%, 100% { transform: scale(1); opacity: .7; } 50% { transform: scale(1.1); opacity: 1; } }
    .slide { animation: slide 8s ease-in-out infinite; }
    @keyframes slide { 0%, 100% { transform: translateX(0); } 50% { transform: translateX(20px); } }
    .blink { animation: blink 3s ease-in-out infinite; }
    @keyframes blink { 0%, 100% { opacity: 0.3; } 50% { opacity: 1; } }
  </style>
  
  <!-- Background -->
  <circle cx="150" cy="150" r="120" fill="#5E3BEE" opacity="0.05"/>
  <circle class="spin" cx="150" cy="150" r="100" stroke="#5E3BEE" stroke-width="2" stroke-dasharray="10 15" opacity="0.2" fill="none"/>
  
  <!-- Project Cards -->
  <g class="float" style="animation-delay: 0.5s">
    <rect x="70" y="70" width="80" height="60" rx="8" fill="white" stroke="#5E3BEE" stroke-width="2"/>
    <rect x="75" y="75" width="70" height="30" rx="4" fill="#5E3BEE" opacity="0.2"/>
    <circle cx="85" cy="115" r="3" fill="#5E3BEE"/>
    <circle cx="95" cy="115" r="3" fill="#5E3BEE"/>
    <circle cx="105" cy="115" r="3" fill="#5E3BEE"/>
  </g>
  
  <g class="float" style="animation-delay: 1.5s">
    <rect x="170" y="70" width="80" height="60" rx="8" fill="white" stroke="#FA5252" stroke-width="2"/>
    <rect x="175" y="75" width="70" height="30" rx="4" fill="#FA5252" opacity="0.2"/>
    <circle cx="185" cy="115" r="3" fill="#FA5252"/>
    <circle cx="195" cy="115" r="3" fill="#FA5252"/>
    <circle cx="205" cy="115" r="3" fill="#FA5252"/>
  </g>
  
  <g class="float" style="animation-delay: 1s">
    <rect x="120" y="170" width="80" height="60" rx="8" fill="white" stroke="#5E3BEE" stroke-width="2"/>
    <rect x="125" y="175" width="70" height="30" rx="4" fill="#5E3BEE" opacity="0.2"/>
    <circle cx="135" cy="215" r="3" fill="#5E3BEE"/>
    <circle cx="145" cy="215" r="3" fill="#5E3BEE"/>
    <circle cx="155" cy="215" r="3" fill="#5E3BEE"/>
  </g>
  
  <!-- Central Element -->
  <g class="pulse">
    <polygon points="150,40 165,60 135,60" fill="#FA5252"/>
    <line x1="150" y1="40" x2="150" y2="260" stroke="#FA5252" stroke-width="2" stroke-dasharray="10 5"/>
  </g>
  
  <!-- Moving Elements -->
  <g class="slide" style="animation-delay: 0.5s">
    <circle cx="60" cy="250" r="15" fill="#5E3BEE" opacity="0.6"/>
  </g>
  
  <g class="slide" style="animation-delay: 1.5s">
    <circle cx="240" cy="250" r="15" fill="#FA5252" opacity="0.6"/>
  </g>
  
  <g class="slide" style="animation-delay: 1s">
    <rect x="140" y="240" width="20" height="20" rx="4" fill="#5E3BEE" opacity="0.6"/>
  </g>
  
  <!-- Code Lines -->
  <g class="blink">
    <line x1="70" y1="50" x2="100" y2="50" stroke="#5E3BEE" stroke-width="2"/>
    <line x1="70" y1="55" x2="90" y2="55" stroke="#5E3BEE" stroke-width="2"/>
  </g>
  
  <g class="blink" style="animation-delay: 0.5s">
    <line x1="200" y1="50" x2="230" y2="50" stroke="#FA5252" stroke-width="2"/>
    <line x1="200" y1="55" x2="220" y2="55" stroke="#FA5252" stroke-width="2"/>
  </g>
  
  <g class="blink" style="animation-delay: 1s">
    <line x1="70" y1="250" x2="100" y2="250" stroke="#FA5252" stroke-width="2"/>
    <line x1="70" y1="255" x2="90" y2="255" stroke="#FA5252" stroke-width="2"/>
  </g>
  
  <g class="blink" style="animation-delay: 1.5s">
    <line x1="200" y1="250" x2="230" y2="250" stroke="#5E3BEE" stroke-width="2"/>
    <line x1="200" y1="255" x2="220" y2="255" stroke="#5E3BEE" stroke-width="2"/>
  </g>
</svg>
